<?xml version="1.0" standalone="no"?>
<!DOCTYPE svg PUBLIC "-//W3C//DTD SVG 20010904//EN"
 "http://www.w3.org/TR/2001/REC-SVG-20010904/DTD/svg10.dtd">
<svg version="1.0" xmlns="http://www.w3.org/2000/svg"
 width="500.000000pt" height="500.000000pt" viewBox="0 0 500.000000 500.000000"
 preserveAspectRatio="xMidYMid meet">

<g transform="translate(0.000000,500.000000) scale(0.100000,-0.100000)"
fill="#000000" stroke="none">
<path d="M972 2663 c-65 -32 -80 -117 -30 -171 13 -13 51 -37 84 -52 93 -42
117 -88 69 -136 -21 -21 -33 -25 -77 -22 -53 3 -62 10 -73 61 -9 46 -35 34
-35 -18 0 -52 14 -63 90 -72 61 -7 133 18 157 53 21 32 20 94 -2 127 -10 15
-48 41 -91 62 -80 37 -101 64 -90 110 8 31 64 58 101 49 18 -4 28 -16 35 -45
15 -55 40 -52 40 5 0 40 -3 45 -31 55 -45 16 -109 13 -147 -6z"/>
<path d="M2222 2663 c-65 -32 -80 -117 -30 -171 13 -13 51 -37 84 -52 93 -42
117 -88 69 -136 -21 -21 -33 -25 -77 -22 -53 3 -62 10 -73 61 -9 46 -35 34
-35 -18 0 -52 14 -63 90 -72 61 -7 133 18 157 53 21 32 20 94 -2 127 -10 15
-48 41 -91 62 -80 37 -101 64 -90 110 8 31 64 58 101 49 18 -4 28 -16 35 -45
15 -55 40 -52 40 5 0 40 -3 45 -31 55 -45 16 -109 13 -147 -6z"/>
<path d="M3117 2623 c-3 -10 -8 -30 -11 -45 -5 -21 -12 -28 -31 -28 -14 0 -25
-4 -25 -10 0 -5 11 -10 25 -10 l25 0 0 -116 c0 -63 5 -124 10 -134 15 -27 74
-36 105 -16 33 21 33 39 0 24 -46 -21 -55 0 -55 128 l0 114 40 0 c22 0 40 5
40 10 0 6 -18 10 -40 10 l-40 0 0 45 c0 38 -3 45 -19 45 -11 0 -22 -8 -24 -17z"/>
<path d="M1293 2540 c-48 -29 -66 -71 -61 -146 4 -71 27 -106 85 -130 44 -19
69 -18 118 6 53 25 77 67 77 133 1 97 -54 157 -142 157 -27 0 -58 -8 -77 -20z
m127 -25 c51 -55 34 -213 -25 -235 -59 -22 -103 32 -104 127 -2 110 70 171
129 108z"/>
<path d="M1603 2543 c-48 -16 -56 -33 -18 -33 l25 0 0 -115 c0 -108 -1 -115
-20 -115 -11 0 -20 -4 -20 -10 0 -6 32 -10 75 -10 41 0 75 4 75 9 0 5 -10 11
-22 13 -21 3 -23 9 -26 73 -4 82 1 103 28 138 20 25 23 26 44 12 26 -17 51
-12 60 12 9 23 -12 43 -46 43 -28 0 -76 -39 -79 -64 -1 -6 -4 4 -8 23 -7 41
-14 44 -68 24z"/>
<path d="M1881 2534 c-33 -28 -41 -61 -16 -70 21 -9 42 11 49 46 5 25 10 30
35 30 16 0 37 -7 45 -16 17 -17 22 -84 6 -84 -22 0 -124 -44 -141 -61 -26 -26
-25 -81 2 -105 30 -27 91 -25 123 5 l24 23 11 -21 c14 -26 52 -36 80 -21 28
14 27 30 -1 27 -22 -2 -23 1 -29 108 -3 61 -9 118 -13 128 -12 26 -39 37 -95
37 -39 0 -56 -6 -80 -26z m129 -163 c0 -40 -4 -53 -22 -65 -45 -32 -88 -14
-88 34 0 29 21 53 60 69 45 18 50 14 50 -38z"/>
<path d="M2829 2531 c-16 -17 -29 -40 -29 -54 0 -35 34 -74 78 -87 57 -19 82
-38 82 -64 0 -34 -22 -48 -71 -44 -39 3 -44 6 -53 36 -13 46 -36 42 -36 -8 0
-38 2 -40 42 -50 62 -17 122 -5 153 31 28 34 30 45 15 84 -7 19 -28 35 -75 56
-35 16 -69 37 -74 47 -14 27 13 62 47 62 36 0 49 -10 57 -43 10 -40 35 -35 35
8 0 42 -23 55 -96 55 -37 0 -51 -6 -75 -29z"/>
<path d="M3343 2540 c-65 -39 -89 -149 -47 -220 41 -72 149 -90 208 -35 34 31
34 53 0 26 -60 -47 -149 -13 -161 62 l-6 37 97 0 c110 0 114 3 96 69 -20 74
-115 105 -187 61z m116 -26 c43 -55 21 -84 -61 -84 -52 0 -58 2 -58 20 0 26
26 77 42 83 30 12 58 5 77 -19z"/>
<path d="M3622 2543 c-42 -15 -48 -33 -11 -33 18 0 19 -8 19 -115 0 -108 -1
-115 -20 -115 -11 0 -20 -4 -20 -10 0 -6 30 -10 70 -10 67 0 93 12 50 23 -18
5 -20 14 -20 100 0 91 1 96 26 116 34 27 80 27 94 1 6 -12 10 -61 8 -118 -3
-92 -4 -97 -25 -100 -13 -2 -23 -8 -23 -13 0 -5 34 -9 75 -9 43 0 75 4 75 10
0 6 -9 10 -20 10 -19 0 -20 7 -20 104 0 97 2 106 22 120 27 19 69 21 86 4 8
-8 12 -49 12 -120 0 -101 -1 -108 -20 -108 -11 0 -20 -4 -20 -10 0 -6 32 -10
75 -10 41 0 75 2 75 5 0 3 -11 10 -25 15 -25 9 -25 11 -25 118 0 95 -3 113
-21 136 -27 34 -82 36 -131 2 l-35 -23 -21 23 c-28 32 -78 32 -126 -1 l-36
-24 0 24 c0 28 -8 29 -68 8z"/>
<path d="M2455 2540 c3 -5 12 -10 18 -10 7 0 38 -65 71 -145 53 -132 57 -147
46 -174 -17 -42 -47 -68 -62 -53 -17 17 -68 15 -74 -3 -9 -23 15 -45 50 -45
60 0 90 47 176 278 30 79 59 142 66 142 7 0 16 5 19 10 4 6 -17 10 -57 9 -55
0 -60 -2 -38 -12 14 -6 27 -12 29 -13 6 -5 -60 -194 -68 -194 -5 0 -24 44 -43
98 -30 83 -33 97 -19 100 9 2 20 8 26 13 5 5 -22 9 -69 9 -49 0 -75 -4 -71
-10z"/>
</g>
</svg>
